<svg width="1732" height="1287" viewBox="0 0 1732 1287" fill="none" xmlns="http://www.w3.org/2000/svg">
<rect width="1732" height="1287" fill="#2F2F2F"/>
<path d="M967.5 438L913.5 331.5L891.5 262L810 401L967.5 438Z" fill="#E7237D"/>
<path d="M912.5 574L977 502.5L967.5 438L906.879 475.762L912.5 574Z" fill="#E7237D"/>
<path d="M962.5 703L912.5 574L856.5 577.5L962.5 703Z" fill="#E7237D"/>
<path d="M977 502.5L1038 524L1012 423L913.5 331.5L967.5 438L977 502.5Z" fill="#F06C6C"/>
<path d="M912.5 574L962.5 703L976 654.5L977 502.5L912.5 574Z" fill="#F06C6C"/>
<path d="M913.5 331.5L1053 358.5L962.5 273.5L891.5 262L913.5 331.5Z" fill="#F06C6C"/>
<path d="M913 331L1053 358.5L1012 423.5L913 331Z" fill="#F4804E"/>
<path d="M977 502.5L1038 524L1025 550L1001.5 597L976 654.5L977 502.5Z" fill="#F7941E"/>
<path d="M1038 524L1012 423.5L1053 358.5L1065.5 425L1062.5 476L1038 524Z" fill="#F7941E"/>
<path d="M1053 358.5L962.5 273.5L1014.5 305L1053 358.5Z" fill="#F7941E"/>
<path d="M912.5 574L857 577.5L907 476L912.5 574Z" fill="#BC2486"/>
<path d="M907 476L968 438L810.5 401L907 476Z" fill="#BC2486"/>
<path d="M810 402L891.5 262L845 268L798.5 292.5L752 338L810 402Z" fill="#BC2486"/>
<path d="M857 579L907 476L811 401L752.5 337.5L727.5 408L788.5 460.5L822.5 523L857 579Z" fill="#A6278A"/>
<path d="M962.5 703L856.5 577.5L867 655L889 699.5L962.5 703Z" fill="#A6278A"/>
<path d="M765.5 549.5L823.5 522.5V612.5L765.5 549.5Z" fill="#A6278A"/>
<path d="M889 699.5L815 694.5L765.5 549.5L822.5 610.5V522L857.5 579.5L867.5 655L889 699.5Z" fill="#92278F"/>
<path d="M765.5 550L823.5 523.5L788.5 460.5L727.5 408L732 463L765.5 550Z" fill="#92278F"/>
<path fill-rule="evenodd" clip-rule="evenodd" d="M768.453 161.261C768.439 161.295 768.427 161.33 768.418 161.365C768.364 161.553 768.369 161.746 768.422 161.923C768.442 161.991 768.47 162.058 768.505 162.122C768.529 162.164 768.555 162.204 768.584 162.243L786.348 186.319C786.525 186.558 786.798 186.706 787.094 186.724C787.391 186.741 787.68 186.626 787.883 186.409L795.049 178.761L801.604 180.943L818.1 214.937C818.204 215.151 818.382 215.322 818.601 215.417L886.704 245.09L849.508 275.61L815.477 286.954L788.723 279.31L788.714 279.3L793.986 247.664C794.035 247.374 793.953 247.078 793.763 246.854C793.573 246.629 793.294 246.5 793 246.5H767.5C767.047 246.5 766.65 246.805 766.533 247.243C766.417 247.682 766.61 248.143 767.004 248.368L784.504 258.368C784.983 258.642 785.594 258.476 785.868 257.996C786.142 257.517 785.976 256.906 785.496 256.632L771.266 248.5H791.82L786.714 279.131L723.034 285.885L724.85 225.952L743.068 272.862C743.268 273.377 743.847 273.632 744.362 273.432C744.877 273.232 745.132 272.653 744.932 272.138L724.932 220.638C724.76 220.195 724.299 219.934 723.831 220.014C723.362 220.095 723.015 220.494 723 220.97L721 286.97C720.992 287.258 721.108 287.537 721.32 287.733C721.532 287.93 721.818 288.025 722.105 287.994L786.365 281.179L777.099 365.545L776.921 365.683L730.958 360.168L744.916 328.402C745.105 327.971 744.968 327.465 744.585 327.189L699.585 294.689C699.216 294.423 698.714 294.439 698.363 294.729C698.012 295.019 697.901 295.509 698.093 295.922L728.593 361.422C728.74 361.736 729.037 361.952 729.381 361.993L776.169 367.608L741.078 426.093C740.961 426.147 740.853 426.225 740.761 426.326C740.573 426.533 740.488 426.796 740.501 427.054L739.656 428.462L717.054 461.894L696.952 399.195C696.853 398.885 696.61 398.643 696.3 398.546L680.122 393.461L628.416 281.597C628.355 281.46 628.266 281.34 628.156 281.245C628.134 281.226 628.112 281.208 628.089 281.192C627.908 281.06 627.682 280.988 627.444 281.002C627.408 281.004 627.371 281.008 627.335 281.014C627.139 281.046 626.964 281.135 626.825 281.262C626.776 281.307 626.731 281.357 626.692 281.411C626.662 281.452 626.636 281.495 626.612 281.539L581.62 365.026C581.479 365.287 581.461 365.597 581.572 365.873C581.683 366.149 581.91 366.361 582.193 366.452L615.122 377.074L618.007 401.119C618.047 401.452 618.252 401.743 618.551 401.894C618.851 402.044 619.207 402.034 619.498 401.867L646.299 386.482L679.237 395.465C679.424 395.516 679.617 395.51 679.795 395.455L695.206 400.299L715.631 464.005C715.482 464.266 715.458 464.581 715.568 464.863L751.063 555.848L751.068 555.863L786.555 651.327L807.545 716.797L807.548 716.805C807.629 717.058 807.805 717.263 808.03 717.383L808.04 717.388C808.145 717.442 808.26 717.479 808.382 717.493L808.391 717.494L941.462 733.369L814.409 745.004C813.893 745.051 813.499 745.484 813.5 746.002C813.501 746.519 813.897 746.951 814.412 746.996L939.438 757.987L810.915 769.004C810.387 769.049 809.987 769.497 810 770.026C810.014 770.555 810.438 770.982 810.967 770.999L932.034 775.02L818.395 787.005C817.873 787.061 817.483 787.509 817.501 788.034C817.518 788.558 817.938 788.979 818.462 788.999L934.876 793.42C914.283 816.742 893.11 823.512 874.966 822.539C856.361 821.542 840.801 812.395 832.186 804.272C831.784 803.894 831.151 803.912 830.772 804.314C830.394 804.716 830.412 805.349 830.814 805.728C839.699 814.105 855.689 823.508 874.859 824.536C894.09 825.567 916.38 818.161 937.76 793.15C938.009 792.858 938.07 792.45 937.916 792.099C937.762 791.748 937.421 791.515 937.038 791.501L832.487 787.53L946.605 775.495C947.127 775.439 947.518 774.989 947.499 774.464C947.48 773.939 947.058 773.518 946.533 773.501L827.853 769.559L951.085 758.996C951.602 758.952 951.999 758.52 952 758.001C952.001 757.482 951.604 757.049 951.088 757.004L825.688 745.98L951.091 734.496C951.601 734.449 951.993 734.025 952 733.514C952.007 733.002 951.627 732.568 951.118 732.507L833.189 718.438L887.451 720.499C887.46 720.499 887.469 720.5 887.477 720.5L887.49 720.5H887.509C887.522 720.5 887.535 720.499 887.548 720.499L887.594 720.497L949.548 717.499C949.938 717.48 950.281 717.237 950.427 716.875L965.167 680.486C965.177 680.484 965.188 680.482 965.198 680.48C965.623 680.394 965.945 680.044 965.994 679.612L966.177 677.993L966.405 677.43L1002.11 612.294C1002.33 612.125 1002.47 611.869 1002.5 611.586L1003.36 610.004L1003.38 609.981L1050.86 528.504C1050.88 528.482 1050.89 528.46 1050.9 528.437L1050.91 528.421L1075.96 474.389C1076.32 474.204 1076.53 473.822 1076.5 473.419L1076.48 473.203C1076.48 473.191 1076.48 473.179 1076.49 473.166C1076.49 473.149 1076.49 473.133 1076.49 473.116L1082.49 421.616C1082.51 421.504 1082.5 421.39 1082.48 421.28L1066.48 350.28C1066.45 350.147 1066.39 350.022 1066.31 349.912L1026.31 294.912C1026.24 294.816 1026.15 294.734 1026.05 294.668L969.269 256.811L968.192 255.778C967.933 255.529 967.574 255.448 967.25 255.532C967.132 255.501 967.008 255.492 966.885 255.507L920.869 260.835L912.579 226.213L934.311 196.085C934.483 195.846 934.541 195.544 934.47 195.259C934.399 194.973 934.206 194.734 933.943 194.603L894.443 175.103C893.947 174.859 893.348 175.062 893.103 175.557C892.859 176.053 893.062 176.652 893.557 176.897L931.998 195.874L910.689 225.415C910.519 225.651 910.46 225.95 910.527 226.233L918.706 260.392L889.498 243.633C889.166 243.443 888.759 243.459 888.446 243.668L819.738 213.731L803.4 180.063C803.343 179.947 803.268 179.847 803.178 179.765L802.438 170.57L809.253 162.594C809.506 162.299 809.564 161.883 809.403 161.53C809.241 161.176 808.889 160.948 808.501 160.945L769.407 160.637C768.997 160.626 768.612 160.869 768.453 161.261ZM968.012 258.377L966.751 257.536L922.502 262.659L1059.67 346.276L968.012 258.377ZM1058.03 341.934L1024.8 296.233L977.492 264.696L1058.03 341.934ZM780.493 367.119C780.458 367.408 780.304 367.652 780.086 367.81L804.326 393.845L856.901 306.064L779.737 366.028C780.222 366.146 780.554 366.611 780.493 367.119ZM787.245 184.165L772.464 164.133L796.014 174.806L794.285 176.651C794.024 176.757 793.809 176.973 793.712 177.262L793.712 177.263L787.245 184.165ZM798.38 173.743C798.508 173.863 798.597 174.008 798.647 174.164L800.947 176.976L800.472 171.076L781.043 165.825L797.966 173.495C797.995 173.508 798.022 173.522 798.049 173.537C798.168 173.582 798.281 173.651 798.38 173.743ZM796.555 177.154L797.598 176.04L799.241 178.049L796.555 177.154ZM806.337 162.928L801.019 169.152L777.139 162.698L806.337 162.928ZM741.357 429.515L741.858 428.68L778.483 462.059L718.406 463.467L741.328 429.56C741.339 429.545 741.348 429.53 741.357 429.515ZM777.544 369.204L779.913 460.656L742.908 426.93L777.544 369.204ZM781.834 457.564L779.57 370.191L803.357 395.74L781.834 457.564ZM780 464.024L780 464.026C780.014 464.539 780.411 464.951 780.909 464.996L812.358 525.58L720.244 465.424L780 464.024ZM718.395 466.605L752.627 554.356L812.895 528.32L718.395 466.605ZM754.338 558.92L787.714 648.707L811.935 620.294L754.338 558.92ZM813 618.506V530.453L754.203 555.854L813 618.506ZM816.189 528.973L854.348 585.976L905.064 478.324L816.189 528.973ZM908.543 476.34C908.733 476.217 908.873 476.035 908.945 475.826L972.562 439.474L911.857 580.481L908.543 476.34ZM907.728 474.026L808.868 397.613L971.336 437.87L907.935 474.1C907.87 474.068 907.801 474.043 907.728 474.026ZM974.484 436.253L1019.13 419.63L917.968 326.069L974.484 436.253ZM1019.18 421.746L975.575 437.981L984.549 503.634L1019.18 421.746ZM1020.8 418.457L918.023 323.397L1063.86 351.7L1020.8 418.457ZM915.335 320.837L1060.23 348.959L919.002 262.867L918.979 262.854L890.976 246.787L915.335 320.837ZM887.662 246.892L851.206 276.804L860.6 299.616L887.662 246.892ZM849.431 277.744L858.765 300.413L818.761 287.967L849.431 277.744ZM779.299 363.836L858.374 302.386L815.225 288.962L815.214 288.958L788.365 281.287L779.299 363.836ZM1080.49 421.554L1075.65 463.061L1067.59 364.33L1080.49 421.554ZM856.361 586.395L906.648 479.656L909.892 581.614L902.829 584.357L856.361 586.395ZM902.834 584.357L902.829 584.357L897.019 586.614L855.398 588.44C855.373 588.492 855.343 588.541 855.31 588.587L863.507 599.631L861.574 600.382L855.481 592.173L856.777 602.246L854.856 602.992L853.119 589.489L818.878 616.967L815 618.473V618.476L818.871 616.972L814.997 620.081C814.996 620.093 814.995 620.105 814.993 620.117L863.619 671.103L854.856 602.994L856.777 602.248L865.924 673.347L945.674 713.696L861.575 600.384L863.508 599.633L946.567 711.543L911.235 585.972C911.173 585.987 911.109 585.996 911.044 585.999L897.025 586.614L902.834 584.357ZM909.892 581.616L909.969 584.044L902.834 584.357L909.892 581.616ZM914.279 579.911L909.892 581.616L909.892 581.614L914.28 579.91L914.279 579.911ZM914.457 579.842L914.183 580.136L914.279 579.911L914.457 579.842ZM914.46 579.84L914.457 579.842L918.761 578.171L912.855 584.481L912.864 584.496L912.872 584.511L964.355 676.305L978.052 555.14L980.157 554.322L966.79 672.566L1000.44 611.186L990.53 550.293L992.436 549.552L1002 608.366L1048.18 529.129L1046.45 528.572L985.862 509.147L992.435 549.552L990.53 550.292L984.678 514.324L980.157 554.321L978.052 555.139L983.236 509.28L918.764 578.168L914.46 579.84ZM914.46 579.84L982.945 506.664L973.996 441.199L914.28 579.91L914.46 579.84ZM918.764 578.168L978.052 555.139L978.052 555.14L918.761 578.171L918.764 578.168ZM980.157 554.321L990.53 550.292L990.53 550.293L980.157 554.322L980.157 554.321ZM992.435 549.552L1046.45 528.572L992.436 549.552L992.435 549.552ZM897.025 586.614L863.508 599.633L863.507 599.631L897.019 586.614L897.025 586.614ZM861.575 600.384L856.777 602.248L856.777 602.246L861.574 600.382L861.575 600.384ZM854.856 602.994L818.871 616.972L818.878 616.967L854.856 602.992L854.856 602.994ZM985.487 506.839L985.502 506.931L1048.07 526.991L1020.78 423.092L985.441 506.661C985.461 506.718 985.477 506.778 985.487 506.839ZM1074.14 473.563L1049.86 525.928L1022.89 423.256L1074.14 473.563ZM852.766 587.208L815 617.514V530.792L852.766 587.208ZM788.506 650.862L812.349 622.892L807.784 710.992L788.506 650.862ZM850.729 717.103L811.35 715.608L863.141 676.65L850.729 717.103ZM885.859 718.437L852.797 717.181L865.218 676.698L885.859 718.437ZM963.595 679.039L949.376 714.143L915.239 592.82L963.595 679.039ZM867.227 676.247L888.106 718.469L945.175 715.685L867.227 676.247ZM863.5 673.877L814.379 622.37L809.609 714.414L863.5 673.877ZM1064.74 354.019L1074.28 470.906L1022.28 419.857L1064.74 354.019ZM912.909 319.862L861.909 301.445L889.297 248.085L912.909 319.862ZM807.661 392.168L912.306 321.771L860.935 303.22L807.661 392.168ZM782.362 462.129L804.988 397.141L904.637 474.164L782.362 462.129ZM782.737 464.176L904.774 476.187L815.408 527.116L782.737 464.176ZM914.124 322.958L806.928 395.072L972.107 436.001L914.124 322.958ZM583.95 364.917L626.559 285.854L627.986 379.122L616.89 375.543C616.704 375.182 616.308 374.956 615.881 375.007C615.76 375.022 615.647 375.057 615.545 375.109L583.95 364.917ZM629.952 380.807C629.865 381.075 629.676 381.281 629.442 381.397L621.28 398.538L644.892 384.983L628.689 294.335L630 379.985C630.001 380.074 629.991 380.163 629.968 380.25C630.014 380.427 630.012 380.62 629.952 380.807ZM617.217 377.75L627.4 381.035L619.582 397.453L617.217 377.75ZM677.691 392.97L646.848 384.558L629.851 289.47L677.691 392.97ZM680.533 325.85C680.567 325.838 680.602 325.827 680.638 325.818C681.049 325.717 681.472 325.887 681.703 326.225L704.365 358.082C704.59 358.399 704.612 358.818 704.42 359.156C704.227 359.494 703.857 359.69 703.469 359.658L693.013 358.811L685.811 364.957C685.555 365.175 685.208 365.25 684.885 365.158C684.563 365.065 684.308 364.817 684.208 364.497L682.046 357.624L671.648 356.3C671.354 356.262 671.091 356.096 670.932 355.845C670.772 355.595 670.732 355.287 670.822 355.004L679.92 326.5C679.934 326.454 679.951 326.409 679.971 326.365C680.002 326.299 680.04 326.237 680.084 326.18C680.196 326.034 680.35 325.917 680.533 325.85ZM680.662 330.751L673.093 354.468L682.476 355.663L682.477 355.662C682.767 355.571 683.068 355.619 683.307 355.769L685.816 356.088L680.662 330.751ZM687.879 357.845C687.976 357.713 688.041 357.556 688.063 357.383C688.08 357.248 688.07 357.116 688.036 356.993C688.033 356.963 688.028 356.932 688.022 356.902L684.319 338.694L691.451 357.515L686.949 361.357L687.879 357.845ZM685.744 358.095L684.23 357.902L685.079 360.603L685.744 358.095ZM693.33 356.83L701.49 357.491L684.564 333.698L693.33 356.83ZM756.821 185.973L756.837 185.973C756.868 185.973 756.899 185.975 756.931 185.978C757.352 186.022 757.692 186.324 757.795 186.721L768.358 224.362C768.463 224.736 768.341 225.137 768.046 225.391C767.751 225.644 767.336 225.703 766.982 225.543L757.427 221.211L748.572 224.562C748.258 224.681 747.905 224.634 747.633 224.438C747.361 224.242 747.205 223.922 747.219 223.587L747.506 216.388L738.168 211.628C737.904 211.493 737.713 211.247 737.647 210.958C737.582 210.668 737.648 210.364 737.829 210.129L756.024 186.377C756.053 186.338 756.084 186.301 756.118 186.267C756.17 186.215 756.226 186.17 756.286 186.131C756.442 186.031 756.626 185.974 756.821 185.973ZM755.286 190.628L740.147 210.391L748.574 214.687L748.575 214.687C748.879 214.7 749.146 214.846 749.321 215.068L751.574 216.216L755.286 190.628ZM752.922 218.568C753.057 218.476 753.172 218.35 753.251 218.194C753.313 218.073 753.348 217.946 753.358 217.819C753.365 217.789 753.371 217.758 753.375 217.728L756.043 199.34L756.395 219.463L750.86 221.558L752.922 218.568ZM750.828 218.081L749.468 217.388L749.355 220.217L750.828 218.081ZM758.395 219.454L765.852 222.834L757.963 194.721L758.395 219.454ZM636.479 225.42C636.788 225.105 637.258 225.036 637.637 225.225L715.412 261.828C715.764 261.993 715.988 262.348 715.986 262.736C715.985 263.125 715.758 263.478 715.405 263.641L694.008 273.498L686.667 293.504C686.551 293.819 686.285 294.056 685.959 294.133C685.632 294.21 685.288 294.119 685.044 293.889L672.933 282.53L650.877 291.491C650.602 291.602 650.291 291.586 650.029 291.446C649.768 291.306 649.581 291.057 649.521 290.766L636.215 226.336C636.207 226.297 636.2 226.258 636.197 226.219C636.188 226.136 636.191 226.053 636.203 225.972C636.233 225.77 636.325 225.576 636.479 225.42ZM651.237 289.186L638.948 229.678L680.239 277.402L673.246 280.244C672.902 280.152 672.519 280.247 672.258 280.526C672.208 280.579 672.164 280.637 672.128 280.698L651.237 289.186ZM682.83 277.429C682.92 277.652 682.925 277.888 682.859 278.101L685.892 289.809L691.987 273.2L646.03 234.807L682.437 276.886C682.478 276.933 682.515 276.985 682.546 277.04C682.667 277.141 682.766 277.273 682.83 277.429ZM674.973 281.701L681.082 279.219L683.894 290.069L674.973 281.701ZM712.617 262.723L643.794 230.333L693.247 271.647L712.617 262.723ZM729.474 358.574L701.527 298.559L742.759 328.338L729.474 358.574Z" fill="#D1D2D4"/>
<circle opacity="0.68" cx="807.5" cy="396.5" r="12.5" fill="#D9F0F5"/>
<circle cx="807.5" cy="396.5" r="6.5" fill="#D9F0F5"/>
<circle opacity="0.68" cx="973.5" cy="439.5" r="12.5" fill="#D9F0F5"/>
<circle cx="973.5" cy="439.5" r="6.5" fill="#D9F0F5"/>
<circle opacity="0.68" cx="852.5" cy="590.5" r="12.5" fill="#D9F0F5"/>
<circle cx="852.5" cy="590.5" r="6.5" fill="#D9F0F5"/>
<path d="M433.5 923.5H463M465 881.5H416V959.5H465M518 881.5V959.5H558M599 959.5L626.743 881.5L656 959.5H599Z" stroke="url(#paint0_linear_301_3)" stroke-width="6" stroke-linecap="round" stroke-linejoin="round"/>
<path d="M994.743 881.5L967 959.5H1024L994.743 881.5Z" stroke="#D1D2D4" stroke-width="6" stroke-linecap="round" stroke-linejoin="round"/>
<path d="M1273.74 881.5L1246 959.5H1303L1273.74 881.5Z" stroke="#D1D2D4" stroke-width="6" stroke-linecap="round" stroke-linejoin="round"/>
<path d="M725.4 881.5H697V959.5H728.887C739.251 957.825 743.17 948.332 743.835 943.795C745.827 922.332 729.386 920.238 717.926 919.191L728.887 915.003L728.996 914.946C733.963 912.338 740.347 908.985 740.347 897.728C740.347 886.211 730.714 882.198 725.4 881.5Z" stroke="#D1D2D4" stroke-width="6" stroke-linecap="round" stroke-linejoin="round"/>
<path d="M881 959.5V881.5H918C925 881.5 933 890.923 933 904.01C933 915.348 927.5 923.383 920.5 926H911.5L934.5 959.5" stroke="#D1D2D4" stroke-width="6" stroke-linecap="round" stroke-linejoin="round"/>
<path d="M844 920.5C844 942.408 828.432 959.5 810 959.5C791.568 959.5 776 942.408 776 920.5C776 898.592 791.568 881.5 810 881.5C828.432 881.5 844 898.592 844 920.5Z" stroke="#D1D2D4" stroke-width="6"/>
<path d="M1034 881.5H1065.5M1097 881.5H1065.5M1065.5 881.5V959.5" stroke="#D1D2D4" stroke-width="6" stroke-linecap="round" stroke-linejoin="round"/>
<path d="M1133 881.5V959.5" stroke="#D1D2D4" stroke-width="6" stroke-linecap="round" stroke-linejoin="round"/>
<path d="M1169 881.5L1199.74 959.5L1233 881.5" stroke="#D1D2D4" stroke-width="6" stroke-linecap="round" stroke-linejoin="round"/>
<path d="M697.608 991.773L707.834 1016.24L718.098 991.773H721.221V1019.5H718.879V1007.43L719.069 995.049L708.748 1019.5H706.939L696.656 995.144L696.846 1007.35V1019.5H694.504V991.773H697.608ZM744.144 1006.21H731.175V1017.52H746.086V1019.5H728.833V991.773H745.991V993.773H731.175V1004.23H744.144V1006.21ZM770.817 993.773H761.315V1019.5H758.973V993.773H749.489V991.773H770.817V993.773ZM795.854 1007.14C795.854 1009.69 795.409 1011.93 794.521 1013.86C793.645 1015.79 792.388 1017.28 790.75 1018.32C789.112 1019.36 787.221 1019.88 785.075 1019.88C781.838 1019.88 779.223 1018.73 777.23 1016.42C775.236 1014.09 774.24 1010.96 774.24 1007.03V1004.17C774.24 1001.64 774.684 999.41 775.573 997.467C776.474 995.512 777.744 994.014 779.381 992.973C781.019 991.919 782.904 991.393 785.037 991.393C787.17 991.393 789.049 991.907 790.674 992.935C792.312 993.963 793.575 995.417 794.463 997.296C795.352 999.175 795.816 1001.35 795.854 1003.83V1007.14ZM793.511 1004.13C793.511 1000.79 792.756 998.178 791.245 996.287C789.734 994.395 787.665 993.449 785.037 993.449C782.46 993.449 780.403 994.401 778.867 996.306C777.344 998.197 776.582 1000.84 776.582 1004.25V1007.14C776.582 1010.43 777.344 1013.04 778.867 1014.97C780.391 1016.88 782.46 1017.84 785.075 1017.84C787.729 1017.84 789.798 1016.9 791.283 1015.01C792.769 1013.1 793.511 1010.45 793.511 1007.06V1004.13ZM802.342 1019.5V991.773H810.092C812.365 991.773 814.402 992.294 816.205 993.335C818.008 994.363 819.411 995.842 820.414 997.772C821.429 999.702 821.937 1001.9 821.937 1004.36V1006.91C821.937 1009.39 821.436 1011.58 820.433 1013.5C819.43 1015.42 818.014 1016.9 816.186 1017.94C814.371 1018.98 812.282 1019.5 809.921 1019.5H802.342ZM804.684 993.773V1017.52H809.94C812.86 1017.52 815.202 1016.55 816.967 1014.62C818.732 1012.68 819.614 1010.06 819.614 1006.76V1004.32C819.614 1001.14 818.744 998.584 817.005 996.667C815.266 994.75 812.974 993.786 810.131 993.773H804.684ZM848.973 1007.14C848.973 1009.69 848.529 1011.93 847.64 1013.86C846.764 1015.79 845.507 1017.28 843.869 1018.32C842.232 1019.36 840.34 1019.88 838.195 1019.88C834.957 1019.88 832.342 1018.73 830.349 1016.42C828.356 1014.09 827.359 1010.96 827.359 1007.03V1004.17C827.359 1001.64 827.803 999.41 828.692 997.467C829.593 995.512 830.863 994.014 832.501 992.973C834.138 991.919 836.024 991.393 838.156 991.393C840.289 991.393 842.168 991.907 843.793 992.935C845.431 993.963 846.694 995.417 847.583 997.296C848.471 999.175 848.935 1001.35 848.973 1003.83V1007.14ZM846.631 1004.13C846.631 1000.79 845.875 998.178 844.364 996.287C842.854 994.395 840.784 993.449 838.156 993.449C835.579 993.449 833.523 994.401 831.987 996.306C830.463 998.197 829.701 1000.84 829.701 1004.25V1007.14C829.701 1010.43 830.463 1013.04 831.987 1014.97C833.51 1016.88 835.579 1017.84 838.195 1017.84C840.848 1017.84 842.917 1016.9 844.403 1015.01C845.888 1013.1 846.631 1010.45 846.631 1007.06V1004.13ZM857.822 1017.52H871.514V1019.5H855.461V991.773H857.822V1017.52ZM895.846 1007.14C895.846 1009.69 895.402 1011.93 894.513 1013.86C893.637 1015.79 892.38 1017.28 890.742 1018.32C889.105 1019.36 887.213 1019.88 885.068 1019.88C881.83 1019.88 879.215 1018.73 877.222 1016.42C875.229 1014.09 874.232 1010.96 874.232 1007.03V1004.17C874.232 1001.64 874.677 999.41 875.565 997.467C876.467 995.512 877.736 994.014 879.374 992.973C881.012 991.919 882.897 991.393 885.03 991.393C887.162 991.393 889.041 991.907 890.666 992.935C892.304 993.963 893.567 995.417 894.456 997.296C895.345 999.175 895.808 1001.35 895.846 1003.83V1007.14ZM893.504 1004.13C893.504 1000.79 892.748 998.178 891.238 996.287C889.727 994.395 887.658 993.449 885.03 993.449C882.452 993.449 880.396 994.401 878.86 996.306C877.336 998.197 876.574 1000.84 876.574 1004.25V1007.14C876.574 1010.43 877.336 1013.04 878.86 1014.97C880.383 1016.88 882.452 1017.84 885.068 1017.84C887.721 1017.84 889.79 1016.9 891.276 1015.01C892.761 1013.1 893.504 1010.45 893.504 1007.06V1004.13ZM922.348 1016.21C921.536 1017.36 920.26 1018.26 918.521 1018.91C916.794 1019.56 914.858 1019.88 912.713 1019.88C910.542 1019.88 908.612 1019.36 906.924 1018.32C905.235 1017.28 903.928 1015.81 903.001 1013.9C902.074 1012 901.604 1009.81 901.592 1007.35V1003.85C901.592 1000 902.563 996.966 904.505 994.744C906.448 992.51 909.056 991.393 912.332 991.393C915.188 991.393 917.486 992.123 919.225 993.583C920.965 995.03 921.999 997.029 922.329 999.581H919.987C919.644 997.55 918.813 996.014 917.492 994.973C916.185 993.919 914.471 993.392 912.351 993.392C909.761 993.392 907.711 994.312 906.2 996.153C904.689 997.994 903.934 1000.59 903.934 1003.94V1007.22C903.934 1009.32 904.289 1011.19 905 1012.82C905.724 1014.43 906.752 1015.68 908.085 1016.57C909.431 1017.46 910.973 1017.9 912.713 1017.9C914.731 1017.9 916.464 1017.58 917.911 1016.95C918.851 1016.53 919.549 1016.04 920.006 1015.48V1008.32H912.56V1006.34H922.348V1016.21ZM932.436 1019.5H930.094V991.773H932.436V1019.5ZM955.872 1011.73H943.285L940.429 1019.5H937.972L948.465 991.773H950.693L961.185 1019.5H958.748L955.872 1011.73ZM944.009 1009.73H955.13L949.569 994.63L944.009 1009.73ZM981.556 1012.68C981.556 1011.15 981.017 1009.93 979.937 1009.05C978.858 1008.14 976.884 1007.29 974.015 1006.49C971.146 1005.68 969.051 1004.8 967.731 1003.85C965.852 1002.5 964.913 1000.74 964.913 998.553C964.913 996.433 965.782 994.712 967.521 993.392C969.273 992.059 971.508 991.393 974.225 991.393C976.065 991.393 977.709 991.748 979.157 992.459C980.617 993.17 981.747 994.16 982.546 995.43C983.346 996.699 983.746 998.115 983.746 999.676H981.385C981.385 997.785 980.737 996.268 979.442 995.125C978.147 993.97 976.408 993.392 974.225 993.392C972.104 993.392 970.416 993.868 969.159 994.82C967.902 995.76 967.274 996.991 967.274 998.515C967.274 999.924 967.839 1001.07 968.969 1001.96C970.099 1002.85 971.908 1003.64 974.396 1004.32C976.884 1005 978.769 1005.7 980.052 1006.44C981.334 1007.16 982.299 1008.03 982.946 1009.05C983.594 1010.06 983.917 1011.26 983.917 1012.64C983.917 1014.83 983.041 1016.58 981.289 1017.9C979.55 1019.22 977.252 1019.88 974.396 1019.88C972.441 1019.88 970.644 1019.53 969.007 1018.83C967.382 1018.14 966.144 1017.16 965.293 1015.9C964.456 1014.64 964.037 1013.2 964.037 1011.58H966.379C966.379 1013.53 967.109 1015.08 968.569 1016.21C970.029 1017.34 971.971 1017.9 974.396 1017.9C976.554 1017.9 978.287 1017.42 979.595 1016.47C980.902 1015.52 981.556 1014.26 981.556 1012.68ZM1033.91 1006.21H1020.95V1017.52H1035.86V1019.5H1018.6V991.773H1035.76V993.773H1020.95V1004.23H1033.91V1006.21ZM1043.15 1019.5V991.773H1050.9C1053.17 991.773 1055.21 992.294 1057.01 993.335C1058.81 994.363 1060.22 995.842 1061.22 997.772C1062.23 999.702 1062.74 1001.9 1062.74 1004.36V1006.91C1062.74 1009.39 1062.24 1011.58 1061.24 1013.5C1060.24 1015.42 1058.82 1016.9 1056.99 1017.94C1055.18 1018.98 1053.09 1019.5 1050.73 1019.5H1043.15ZM1045.49 993.773V1017.52H1050.75C1053.67 1017.52 1056.01 1016.55 1057.77 1014.62C1059.54 1012.68 1060.42 1010.06 1060.42 1006.76V1004.32C1060.42 1001.14 1059.55 998.584 1057.81 996.667C1056.07 994.75 1053.78 993.786 1050.94 993.773H1045.49ZM1090.14 991.773V1010.7C1090.13 1012.57 1089.72 1014.19 1088.91 1015.58C1088.09 1016.96 1086.94 1018.03 1085.46 1018.78C1083.99 1019.51 1082.29 1019.88 1080.37 1019.88C1077.45 1019.88 1075.11 1019.09 1073.35 1017.5C1071.6 1015.9 1070.69 1013.69 1070.62 1010.87V991.773H1072.95V1010.53C1072.95 1012.87 1073.61 1014.68 1074.95 1015.98C1076.28 1017.26 1078.09 1017.9 1080.37 1017.9C1082.66 1017.9 1084.46 1017.25 1085.78 1015.96C1087.12 1014.66 1087.78 1012.86 1087.78 1010.55V991.773H1090.14ZM1118.65 1010.85C1118.33 1013.77 1117.28 1016.01 1115.51 1017.56C1113.74 1019.11 1111.39 1019.88 1108.44 1019.88C1106.38 1019.88 1104.56 1019.37 1102.98 1018.34C1101.4 1017.31 1100.18 1015.86 1099.32 1013.98C1098.46 1012.09 1098.02 1009.93 1098.01 1007.5V1003.9C1098.01 1001.44 1098.44 999.257 1099.3 997.353C1100.16 995.449 1101.4 993.982 1103.01 992.954C1104.64 991.913 1106.5 991.393 1108.61 991.393C1111.58 991.393 1113.93 992.199 1115.64 993.811C1117.37 995.411 1118.37 997.626 1118.65 1000.46H1116.29C1115.7 995.747 1113.14 993.392 1108.61 993.392C1106.1 993.392 1104.09 994.332 1102.59 996.21C1101.11 998.089 1100.37 1000.69 1100.37 1004V1007.39C1100.37 1010.59 1101.09 1013.14 1102.54 1015.04C1104 1016.95 1105.97 1017.9 1108.44 1017.9C1110.89 1017.9 1112.74 1017.32 1113.98 1016.15C1115.23 1014.97 1115.99 1013.2 1116.29 1010.85H1118.65ZM1141.65 1011.73H1129.06L1126.21 1019.5H1123.75L1134.24 991.773H1136.47L1146.96 1019.5H1144.53L1141.65 1011.73ZM1129.79 1009.73H1140.91L1135.35 994.63L1129.79 1009.73ZM1172.8 1010.85C1172.48 1013.77 1171.44 1016.01 1169.66 1017.56C1167.89 1019.11 1165.54 1019.88 1162.59 1019.88C1160.54 1019.88 1158.72 1019.37 1157.13 1018.34C1155.55 1017.31 1154.34 1015.86 1153.47 1013.98C1152.61 1012.09 1152.17 1009.93 1152.16 1007.5V1003.9C1152.16 1001.44 1152.59 999.257 1153.45 997.353C1154.32 995.449 1155.55 993.982 1157.17 992.954C1158.79 991.913 1160.66 991.393 1162.77 991.393C1165.74 991.393 1168.08 992.199 1169.79 993.811C1171.52 995.411 1172.52 997.626 1172.8 1000.46H1170.44C1169.86 995.747 1167.3 993.392 1162.77 993.392C1160.25 993.392 1158.25 994.332 1156.75 996.21C1155.26 998.089 1154.52 1000.69 1154.52 1004V1007.39C1154.52 1010.59 1155.24 1013.14 1156.69 1015.04C1158.15 1016.95 1160.12 1017.9 1162.59 1017.9C1165.04 1017.9 1166.89 1017.32 1168.14 1016.15C1169.38 1014.97 1170.15 1013.2 1170.44 1010.85H1172.8ZM1183.69 1019.5H1181.35V991.773H1183.69V1019.5ZM1214.06 1007.14C1214.06 1009.69 1213.62 1011.93 1212.73 1013.86C1211.85 1015.79 1210.6 1017.28 1208.96 1018.32C1207.32 1019.36 1205.43 1019.88 1203.28 1019.88C1200.05 1019.88 1197.43 1018.73 1195.44 1016.42C1193.45 1014.09 1192.45 1010.96 1192.45 1007.03V1004.17C1192.45 1001.64 1192.89 999.41 1193.78 997.467C1194.68 995.512 1195.95 994.014 1197.59 992.973C1199.23 991.919 1201.11 991.393 1203.25 991.393C1205.38 991.393 1207.26 991.907 1208.88 992.935C1210.52 993.963 1211.78 995.417 1212.67 997.296C1213.56 999.175 1214.03 1001.35 1214.06 1003.83V1007.14ZM1211.72 1004.13C1211.72 1000.79 1210.97 998.178 1209.45 996.287C1207.94 994.395 1205.87 993.449 1203.25 993.449C1200.67 993.449 1198.61 994.401 1197.08 996.306C1195.55 998.197 1194.79 1000.84 1194.79 1004.25V1007.14C1194.79 1010.43 1195.55 1013.04 1197.08 1014.97C1198.6 1016.88 1200.67 1017.84 1203.28 1017.84C1205.94 1017.84 1208.01 1016.9 1209.49 1015.01C1210.98 1013.1 1211.72 1010.45 1211.72 1007.06V1004.13ZM1242.95 1019.5H1240.61L1224.67 995.772V1019.5H1222.31V991.773H1224.67L1240.63 1015.52V991.773H1242.95V1019.5ZM1267.65 1011.73H1255.06L1252.2 1019.5H1249.75L1260.24 991.773H1262.47L1272.96 1019.5H1270.52L1267.65 1011.73ZM1255.78 1009.73H1266.9L1261.34 994.63L1255.78 1009.73ZM1282.25 1019.5H1279.91V991.773H1282.25V1019.5ZM1307.82 1012.68C1307.82 1011.15 1307.28 1009.93 1306.2 1009.05C1305.12 1008.14 1303.15 1007.29 1300.28 1006.49C1297.41 1005.68 1295.32 1004.8 1294 1003.85C1292.12 1002.5 1291.18 1000.74 1291.18 998.553C1291.18 996.433 1292.05 994.712 1293.79 993.392C1295.54 992.059 1297.77 991.393 1300.49 991.393C1302.33 991.393 1303.97 991.748 1305.42 992.459C1306.88 993.17 1308.01 994.16 1308.81 995.43C1309.61 996.699 1310.01 998.115 1310.01 999.676H1307.65C1307.65 997.785 1307 996.268 1305.71 995.125C1304.41 993.97 1302.67 993.392 1300.49 993.392C1298.37 993.392 1296.68 993.868 1295.42 994.82C1294.17 995.76 1293.54 996.991 1293.54 998.515C1293.54 999.924 1294.1 1001.07 1295.23 1001.96C1296.36 1002.85 1298.17 1003.64 1300.66 1004.32C1303.15 1005 1305.03 1005.7 1306.32 1006.44C1307.6 1007.16 1308.56 1008.03 1309.21 1009.05C1309.86 1010.06 1310.18 1011.26 1310.18 1012.64C1310.18 1014.83 1309.31 1016.58 1307.55 1017.9C1305.82 1019.22 1303.52 1019.88 1300.66 1019.88C1298.71 1019.88 1296.91 1019.53 1295.27 1018.83C1293.65 1018.14 1292.41 1017.16 1291.56 1015.9C1290.72 1014.64 1290.3 1013.2 1290.3 1011.58H1292.64C1292.64 1013.53 1293.37 1015.08 1294.83 1016.21C1296.29 1017.34 1298.24 1017.9 1300.66 1017.9C1302.82 1017.9 1304.55 1017.42 1305.86 1016.47C1307.17 1015.52 1307.82 1014.26 1307.82 1012.68Z" fill="#D1D2D4"/>
<defs>
<linearGradient id="paint0_linear_301_3" x1="416" y1="920.5" x2="656" y2="920.5" gradientUnits="userSpaceOnUse">
<stop stop-color="#F2868F"/>
<stop offset="0.4625" stop-color="#E6247D"/>
<stop offset="1" stop-color="#BC2486"/>
</linearGradient>
</defs>
</svg>
